<svg width="383" height="300" viewBox="0 0 383 300" fill="none" xmlns="http://www.w3.org/2000/svg">
<path d="M65.4391 254.063C97.1913 252.956 122.72 246.002 122.458 238.529C122.197 231.057 96.2446 225.897 64.4924 227.004C32.7402 228.111 7.21193 235.065 7.47336 242.537C7.73478 250.009 33.6869 255.169 65.4391 254.063Z" fill="#C4C4C4"/>
<path d="M183.591 212.324C191.389 212.188 197.675 210.001 197.63 207.44C197.585 204.879 191.227 202.912 183.429 203.048C175.63 203.184 169.344 205.371 169.389 207.932C169.434 210.493 175.792 212.46 183.591 212.324Z" fill="#C2C2C2"/>
<path d="M264.954 196.357C272.752 196.221 279.042 194.265 279.002 191.987C278.962 189.71 272.608 187.974 264.81 188.11C257.011 188.246 250.721 190.202 250.761 192.479C250.801 194.757 257.155 196.493 264.954 196.357Z" fill="#C2C2C2"/>
<path d="M339.552 196.267C360.217 196.267 376.969 193.132 376.969 189.264C376.969 185.397 360.217 182.262 339.552 182.262C318.888 182.262 302.136 185.397 302.136 189.264C302.136 193.132 318.888 196.267 339.552 196.267Z" fill="#C4C4C4"/>
<path d="M351.178 88.5035H358.326V186.963H351.178V88.5035Z" fill="#202020"/>
<path d="M354.752 186.963C351.199 186.963 348.318 186.004 348.318 184.822C348.318 183.64 351.199 182.682 354.752 182.682C358.305 182.682 361.185 183.64 361.185 184.822C361.185 186.004 358.305 186.963 354.752 186.963Z" fill="#202020"/>
<path d="M348.319 184.822H361.185V189.103H348.319V184.822Z" fill="#202020"/>
<path d="M354.752 83.5091C351.593 83.5091 349.033 80.9536 349.033 77.8013C349.033 74.649 351.593 72.0935 354.752 72.0935C357.91 72.0935 360.47 74.649 360.47 77.8013C360.47 80.9536 357.91 83.5091 354.752 83.5091Z" fill="#202020"/>
<path d="M354.752 92.0708C352.778 92.0708 351.178 90.4736 351.178 88.5034C351.178 86.5332 352.778 84.936 354.752 84.936C356.726 84.936 358.326 86.5332 358.326 88.5034C358.326 90.4736 356.726 92.0708 354.752 92.0708Z" fill="#202020"/>
<path d="M352.607 81.3688H356.896V89.217H352.607V81.3688Z" fill="#202020"/>
<path d="M291.847 102.773L350.82 89.7974V115.748L291.847 102.773Z" fill="url(#paint0_linear)"/>
<path d="M109.043 225.577C108.724 218.065 116.545 200.289 119.757 194.82C122.006 190.992 125.844 186.067 131.662 182.784C139.469 178.38 141.205 179.201 146.095 179.551C152.208 179.99 165.353 188.72 170.41 192.254C175.023 195.477 175.056 201.156 178.364 203.896C181.125 206.185 183.779 208.86 186.802 201.018C189.851 193.111 187.744 188.458 191.36 180.295C195.879 170.09 203.092 158.289 211.867 155.7C219.286 153.511 233.932 154.241 239.554 162.91C242.576 167.571 247.366 172.004 250.805 176.678C253.995 181.275 255.969 186.38 260.405 190.248C265.149 194.383 265.673 191.953 267.248 186.318C269.557 178.058 273.288 162.539 280.172 156.851C284.846 152.989 296.684 150.441 302.649 153.499C305.913 155.172 310.696 158.778 314.001 162C317.306 165.223 317.866 167.491 321.113 171.804C322.94 174.231 324.927 179.523 326.651 181.865" stroke="#202020" stroke-width="2" stroke-linejoin="round" stroke-dasharray="9 9"/>
<path d="M115.525 104.064C113.301 105.424 110.395 104.728 109.033 102.509C107.67 100.29 108.368 97.3889 110.591 96.0291C112.814 94.6694 115.721 95.3659 117.083 97.5848C118.445 99.8036 117.748 102.705 115.525 104.064Z" fill="#202020"/>
<path d="M111.797 101.213C103.586 107.733 98.245 113.095 97.5959 122.53" stroke="#202020" stroke-width="6"/>
<path d="M91.1671 167.617C79.993 167.617 70.9345 158.576 70.9345 147.423C70.9345 136.27 79.993 127.229 91.1671 127.229C102.341 127.229 111.4 136.27 111.4 147.423C111.4 158.576 102.341 167.617 91.1671 167.617Z" fill="#202020"/>
<path d="M89.5752 172.441L108.338 167.861" stroke="#202020" stroke-width="6" stroke-linecap="round" stroke-linejoin="round"/>
<path d="M111.502 165.355L118.954 157.009" stroke="#202020" stroke-width="6" stroke-linecap="round" stroke-linejoin="round"/>
<path d="M93.34 195.77L104.628 197.122" stroke="#202020" stroke-width="6" stroke-linecap="round" stroke-linejoin="round"/>
<path d="M81.2411 180.363L89.7158 193.798" stroke="#202020" stroke-width="6" stroke-linecap="round" stroke-linejoin="round"/>
<path d="M72.2924 186.775L71.2464 206.088" stroke="#202020" stroke-width="6" stroke-linecap="round" stroke-linejoin="round"/>
<path d="M69.2857 210.491L49.7961 232.44" stroke="#202020" stroke-width="6" stroke-linecap="round" stroke-linejoin="round"/>
<path d="M76.5015 188.118L86.3379 209.935" stroke="#202020" stroke-width="6" stroke-linecap="round" stroke-linejoin="round"/>
<path d="M87.2423 214.141V237.484" stroke="#202020" stroke-width="6" stroke-linecap="round" stroke-linejoin="round"/>
<path d="M106.299 139.05V145.108" stroke="white" stroke-width="8" stroke-linecap="round" stroke-linejoin="round"/>
<path d="M106.973 141.743V144.435" stroke="#202020" stroke-width="3" stroke-linecap="round" stroke-linejoin="round"/>
<path d="M106.794 146.092C106.249 146.092 105.808 145.652 105.808 145.108C105.808 144.565 106.249 144.125 106.794 144.125C107.338 144.125 107.779 144.565 107.779 145.108C107.779 145.652 107.338 146.092 106.794 146.092Z" fill="white"/>
<path d="M106.794 146.092C106.249 146.092 105.808 145.652 105.808 145.108C105.808 144.565 106.249 144.125 106.794 144.125C107.338 144.125 107.779 144.565 107.779 145.108C107.779 145.652 107.338 146.092 106.794 146.092Z" fill="white"/>
<path d="M106.794 146.092C106.249 146.092 105.808 145.652 105.808 145.108C105.808 144.565 106.249 144.125 106.794 144.125C107.338 144.125 107.779 144.565 107.779 145.108C107.779 145.652 107.338 146.092 106.794 146.092Z" fill="white"/>
<path d="M106.794 146.092C106.249 146.092 105.808 145.652 105.808 145.108C105.808 144.565 106.249 144.125 106.794 144.125C107.338 144.125 107.779 144.565 107.779 145.108C107.779 145.652 107.338 146.092 106.794 146.092Z" fill="white"/>
<path d="M89.6289 142.036C76.0337 142.036 65.0126 140.379 65.0126 138.334C65.0126 136.289 76.0337 134.632 89.6289 134.632C103.224 134.632 114.245 136.289 114.245 138.334C114.245 140.379 103.224 142.036 89.6289 142.036Z" fill="#FFD600"/>
<path d="M90.3034 142.037C80.4329 142.037 72.4312 137.215 72.4312 131.266C72.4312 125.318 80.4329 120.496 90.3034 120.496C100.174 120.496 108.176 125.318 108.176 131.266C108.176 137.215 100.174 142.037 90.3034 142.037Z" fill="#FFD600"/>
<path d="M72.4313 130.593H108.176V137.998H72.4313V130.593Z" fill="#FFD600"/>
<path d="M79.5127 124.878C79.4543 125.619 88.353 124.498 93.1801 124.878C98.0073 125.257 101.862 126.306 101.921 125.565C101.979 124.823 98.1925 122.908 93.3653 122.529C84.5708 121.839 79.5712 124.136 79.5127 124.878Z" fill="#E2BE00"/>
<path d="M121.951 112.102C119.517 113.035 116.787 111.821 115.852 109.392C114.918 106.962 116.134 104.237 118.568 103.304C121.002 102.372 123.733 103.585 124.667 106.015C125.601 108.444 124.386 111.17 121.951 112.102Z" fill="#202020"/>
<path d="M104.729 132.155C104.16 132.615 103.383 132.539 102.71 132.255C102.016 131.963 101.299 131.404 100.699 130.666C100.1 129.926 99.7016 129.11 99.5594 128.372C99.4215 127.656 99.5079 126.882 100.077 126.422C100.647 125.961 101.423 126.038 102.096 126.322C102.791 126.614 103.508 127.172 104.107 127.911C104.707 128.65 105.105 129.466 105.247 130.205C105.385 130.921 105.298 131.695 104.729 132.155Z" fill="#202020" stroke="#FFD600"/>
<path d="M118.447 108.155C109.183 113.074 104.705 120.548 102.344 129.708" stroke="#202020" stroke-width="6"/>
<path d="M57.9754 206.72C49.2115 216.1 37.0279 218.977 30.7625 213.146C24.4971 207.314 26.5225 194.983 35.2864 185.602C44.0503 176.222 56.2339 173.345 62.4993 179.177C68.7647 185.008 66.7393 197.34 57.9754 206.72Z" fill="#202020"/>
<path d="M45.2232 181.989C45.3999 182.896 47.1571 181.613 49.5426 181.151C51.9282 180.688 54.0388 181.22 53.8621 180.313C53.6854 179.405 51.6082 179.045 49.2226 179.508C46.8372 179.971 45.0465 181.082 45.2232 181.989Z" fill="white"/>
<path d="M72.3242 187.714C63.1987 187.714 55.801 181.083 55.801 172.905C55.801 164.726 63.1987 158.095 72.3242 158.095C81.4498 158.095 88.8475 164.726 88.8475 172.905C88.8475 181.083 81.4498 187.714 72.3242 187.714Z" fill="#202020"/>
<path d="M64.7591 162.887C64.988 163.59 66.2577 162.401 68.1062 161.802C69.9548 161.201 71.6822 161.419 71.4533 160.716C71.2244 160.013 69.5403 159.929 67.6917 160.528C65.8432 161.128 64.5302 162.184 64.7591 162.887Z" fill="white"/>
<path d="M110.098 151.452C109.059 152.021 108.514 152.035 107.572 151.83" stroke="white" stroke-width="2" stroke-linecap="round" stroke-linejoin="round"/>
<path d="M93.7932 139.064C94.0908 140.519 89.6091 140.661 79.3641 140.086C73.8456 139.507 69.2519 138.719 69.3227 138.047C69.3935 137.375 74.1414 138.278 79.6599 138.857C85.1784 139.436 93.7932 139.064 93.7932 139.064Z" fill="white"/>
<path d="M78.1799 125.87C78.4047 126.179 77.9025 127.032 77.0905 127.621C76.2785 128.21 75.4643 128.311 75.2394 128.002C75.0146 127.693 75.4906 126.966 76.3027 126.377C77.1146 125.788 77.9551 125.561 78.1799 125.87Z" fill="white"/>
<path d="M115.346 96.7408C115.377 97.1408 114.349 96.764 113.189 96.7408C112.029 96.7172 111.176 97.0559 111.145 96.6562C111.114 96.2561 112.03 95.9506 113.189 95.9741C114.35 95.9974 115.315 96.3407 115.346 96.7408Z" fill="white"/>
<path d="M122.657 104.679C122.687 105.079 121.66 104.702 120.5 104.679C119.34 104.655 118.487 104.994 118.456 104.594C118.425 104.194 119.34 103.889 120.5 103.912C121.66 103.935 122.626 104.279 122.657 104.679Z" fill="white"/>
<path d="M357.994 75.8485C357.863 76.2276 357.071 75.4724 356.017 74.9886C354.962 74.5043 354.045 74.4747 354.176 74.0959C354.307 73.7166 355.268 73.8015 356.322 74.2855C357.377 74.7695 358.126 75.4693 357.994 75.8485Z" fill="white"/>
<path d="M360.884 184.968C360.812 185.245 360.205 184.752 359.426 184.466C358.647 184.18 357.991 184.21 358.064 183.933C358.136 183.655 358.826 183.662 359.604 183.948C360.383 184.233 360.956 184.69 360.884 184.968Z" fill="white"/>
<defs>
<linearGradient id="paint0_linear" x1="334.021" y1="75.661" x2="291.893" y2="102.846" gradientUnits="userSpaceOnUse">
<stop stop-color="#3CB9FF"/>
<stop offset="1" stop-color="#0031FD"/>
</linearGradient>
</defs>
</svg>
