<svg width="381" height="299" viewBox="0 0 381 299" fill="none" xmlns="http://www.w3.org/2000/svg">
<g clip-path="url(#clip0)">
<rect y="54.3174" width="381" height="218.213" fill="url(#paint0_linear)"/>
<circle cx="190.5" cy="299" r="49.4093" fill="black"/>
<g filter="url(#filter0_d)">
<rect x="50.6854" y="99.378" width="272.612" height="148.541" transform="rotate(-1.5 50.6854 99.378)" fill="url(#paint1_linear)"/>
</g>
<g filter="url(#filter1_d)">
<rect x="249.054" y="163.917" width="25.4454" height="4.71887" rx="2" transform="rotate(-67 249.054 163.917)" fill="#FFF5D3"/>
<path d="M261.661 140.725C262.084 139.704 263.254 139.22 264.274 139.643L304.457 156.287L279.966 215.414L239.783 198.77C238.763 198.347 238.278 197.177 238.701 196.157L261.661 140.725Z" fill="#FFF5D3"/>
<path d="M261.661 140.725C262.084 139.704 263.254 139.22 264.274 139.643L304.457 156.287L279.966 215.414L239.783 198.77C238.763 198.347 238.278 197.177 238.701 196.157L261.661 140.725Z" fill="#FFF5D3"/>
<path d="M261.661 140.725C262.084 139.704 263.254 139.22 264.274 139.643L304.457 156.287L279.966 215.414L239.783 198.77C238.763 198.347 238.278 197.177 238.701 196.157L261.661 140.725Z" fill="#FFF5D3"/>
<g filter="url(#filter2_d)">
<path d="M262.356 142.402L301.339 156.977L280.835 211.817L241.852 197.242L262.356 142.402Z" fill="#FFF5D3"/>
<path d="M262.356 142.402L301.339 156.977L280.835 211.817L241.852 197.242L262.356 142.402Z" fill="#FFF5D3"/>
<path d="M262.356 142.402L301.339 156.977L280.835 211.817L241.852 197.242L262.356 142.402Z" fill="white"/>
</g>
<g filter="url(#filter3_d)">
<path d="M265.397 141.409L302.114 156.617L279.709 210.708L242.992 195.5L265.397 141.409Z" fill="#FFF5D3"/>
<path d="M265.397 141.409L302.114 156.617L279.709 210.708L242.992 195.5L265.397 141.409Z" fill="#FFF5D3"/>
<path d="M265.397 141.409L302.114 156.617L279.709 210.708L242.992 195.5L265.397 141.409Z" fill="white"/>
</g>
<path d="M268.215 138.688C268.67 137.583 269.988 137.12 271.034 137.7L304.512 156.24L280.008 215.427L246.799 195.164C245.96 194.651 245.617 193.605 245.992 192.695L268.215 138.688Z" fill="#FFF5D3"/>
<path d="M268.215 138.688C268.67 137.583 269.988 137.12 271.034 137.7L304.512 156.24L280.008 215.427L246.799 195.164C245.96 194.651 245.617 193.605 245.992 192.695L268.215 138.688Z" fill="#FFF5D3"/>
<path d="M268.215 138.688C268.67 137.583 269.988 137.12 271.034 137.7L304.512 156.24L280.008 215.427L246.799 195.164C245.96 194.651 245.617 193.605 245.992 192.695L268.215 138.688Z" fill="#FFF5D3"/>
</g>
<path d="M128.586 186.179C129.16 185.277 129.945 183.752 131.17 183.497C131.857 183.354 132.782 183.677 133.039 184.327C133.761 186.154 134.101 188.396 132.892 190.157C132.315 190.997 130.942 191.125 129.99 191.125C128.81 191.125 128.744 190.095 129.224 189.237C129.723 188.346 130.383 187.764 131.368 187.445C131.931 187.263 132.557 187.379 132.835 187.899" stroke="white" stroke-width="2" stroke-linecap="round" stroke-linejoin="round"/>
<ellipse cx="190.5" cy="217.035" rx="62.5151" ry="67.5346" fill="#FFD600"/>
<line x1="142.747" y1="281.994" x2="73.3254" y2="245.746" stroke="black" stroke-width="11" stroke-linecap="round" stroke-linejoin="round"/>
<line x1="70.6149" y1="238.582" x2="96.2242" y2="201.88" stroke="black" stroke-width="11" stroke-linecap="round" stroke-linejoin="round"/>
<line x1="5.5" y1="-5.5" x2="83.815" y2="-5.5" transform="matrix(0.886439 -0.462845 -0.462845 -0.886439 231.702 279.664)" stroke="black" stroke-width="11" stroke-linecap="round" stroke-linejoin="round"/>
<line x1="5.5" y1="-5.5" x2="57.4808" y2="-5.5" transform="matrix(-0.430094 -0.902784 -0.902784 0.430094 309.892 246.24)" stroke="black" stroke-width="11" stroke-linecap="round" stroke-linejoin="round"/>
<line x1="5.5" y1="-5.5" x2="83.815" y2="-5.5" transform="matrix(0.886439 -0.462845 -0.462845 -0.886439 239.909 308.093)" stroke="black" stroke-width="11" stroke-linecap="round" stroke-linejoin="round"/>
<line x1="322.161" y1="267.16" x2="347.055" y2="223.83" stroke="black" stroke-width="11" stroke-linecap="round" stroke-linejoin="round"/>
<line x1="322.161" y1="267.16" x2="347.055" y2="223.83" stroke="black" stroke-width="11" stroke-linecap="round" stroke-linejoin="round"/>
<line x1="139.532" y1="305.609" x2="60.8798" y2="281.898" stroke="black" stroke-width="11" stroke-linecap="round" stroke-linejoin="round"/>
<line x1="54.6332" y1="274.662" x2="34.2165" y2="237.593" stroke="black" stroke-width="11" stroke-linecap="round" stroke-linejoin="round"/>
<ellipse cx="190.5" cy="217.182" rx="57.7144" ry="62.3484" fill="#E2BE00"/>
<ellipse cx="190.5" cy="217.182" rx="53.5618" ry="57.8624" fill="#FFD600"/>
<ellipse cx="194.653" cy="221.801" rx="53.5618" ry="57.8624" fill="#FFD600"/>
<path d="M195.162 246.188C192.41 246.404 196.571 213.423 195.162 195.532C193.754 177.641 189.86 163.354 192.613 163.138C195.365 162.921 202.476 176.955 203.884 194.846C206.449 227.441 197.915 245.971 195.162 246.188Z" fill="#E2BE00"/>
<path d="M175.12 232.086C173.248 232.233 176.077 209.805 175.12 197.638C174.162 185.471 171.514 175.755 173.386 175.608C175.258 175.46 180.093 185.004 181.051 197.171C182.795 219.337 176.992 231.939 175.12 232.086Z" fill="#E2BE00"/>
<path d="M216.968 232.8C215.096 232.948 217.925 210.519 216.968 198.352C216.01 186.185 213.362 176.469 215.234 176.322C217.106 176.175 221.941 185.718 222.899 197.885C224.643 220.051 218.839 232.653 216.968 232.8Z" fill="#E2BE00"/>
<circle cx="348.037" cy="198.139" r="17.4998" fill="#FFF5D3"/>
<rect x="345.77" y="211.506" width="4.5351" height="15.117" rx="2.26755" fill="#FFF5D3"/>
<circle cx="348.037" cy="198.13" r="13.3759" fill="#714D2D"/>
<path d="M359.827 198.206C350.861 200.016 352.613 203.17 346.422 207.959C340.285 207.959 337.603 204.343 337.603 198.206C337.603 192.069 342.578 187.094 348.715 187.094C354.852 187.094 360.557 192.539 359.827 198.206Z" fill="#A07750"/>
<rect x="22.5884" y="215.618" width="1.5894" height="3.76436" rx="0.794698" transform="rotate(3.5 22.5884 215.618)" fill="#999999"/>
<rect x="23.0327" y="208.353" width="1.5894" height="6.02298" rx="0.794698" transform="rotate(3.5 23.0327 208.353)" fill="#999999"/>
<rect x="24.0293" y="204.391" width="26.6015" height="46.5944" rx="2" transform="rotate(3.5 24.0293 204.391)" fill="url(#paint2_linear)"/>
<path d="M50.4606 220.32L51.0404 210.84C51.0664 210.414 50.7511 210.049 50.3361 210.023L49.662 221.045C50.077 221.07 50.4345 220.746 50.4606 220.32Z" fill="#999999"/>
<rect width="22.7535" height="41.2407" rx="10" transform="matrix(0.998135 0.0610485 0.0610485 -0.998135 23.2023 249.43)" fill="#DEDEDE"/>
<rect x="25.7199" y="208.266" width="22.7535" height="5.60471" rx="1" transform="rotate(3.5 25.7199 208.266)" fill="url(#paint3_linear)"/>
<rect x="46.0208" y="248.811" width="22.7324" height="34.6537" transform="rotate(-176.5 46.0208 248.811)" fill="#DEDEDE"/>
<circle cx="32.7625" cy="206.853" r="0.585567" transform="rotate(3.5 32.7625 206.853)" fill="#999999"/>
<rect width="5.85567" height="0.752872" rx="0.376436" transform="matrix(0.998135 0.0610485 0.0610485 -0.998135 34.2399 207.363)" fill="#999999"/>
<circle cx="45.3392" cy="212.029" r="0.250957" transform="rotate(3.5 45.3392 212.029)" fill="black"/>
<circle cx="46.9256" cy="212.126" r="0.250957" transform="rotate(3.5 46.9256 212.126)" fill="black"/>
<circle cx="46.1741" cy="212.08" r="0.250957" transform="rotate(3.5 46.1741 212.08)" fill="black"/>
<path d="M23.414 243.75L46.245 245.147L45.9612 249.786C45.9275 250.337 45.4533 250.757 44.902 250.723L24.0673 249.448C23.5161 249.415 23.0965 248.941 23.1303 248.389L23.414 243.75Z" fill="url(#paint4_linear)"/>
<path d="M290.058 185.245C288.401 185.245 287.058 186.588 287.058 188.245C287.058 189.902 288.401 191.245 290.058 191.245L290.058 185.245ZM290.058 191.245L308.496 191.245L308.496 185.245L290.058 185.245L290.058 191.245Z" fill="#FF3838"/>
<path d="M272.172 185.246C270.516 185.246 269.172 186.589 269.172 188.246C269.172 189.903 270.516 191.246 272.172 191.246L272.172 185.246ZM272.172 191.246L306.256 191.246L306.256 185.246L272.172 185.246L272.172 191.246Z" fill="#E4E4E4"/>
<path d="M267.563 188.454C267.563 189.195 266.963 189.795 266.222 189.795C265.481 189.795 262.585 189.195 262.585 188.454C262.585 187.713 265.481 187.113 266.222 187.113C266.963 187.113 267.563 187.713 267.563 188.454Z" fill="#FF3838"/>
<path d="M267.621 188.51L280.488 188.398" stroke="#E4E4E4" stroke-width="4" stroke-linecap="round" stroke-linejoin="round"/>
<line x1="1.5" y1="-1.5" x2="4.17398" y2="-1.5" transform="matrix(-0.0838597 0.996478 -0.99905 -0.0435863 32.1256 219.494)" stroke="#5CC4FF" stroke-width="3" stroke-linecap="round" stroke-linejoin="round"/>
<line x1="1.5" y1="-1.5" x2="4.17398" y2="-1.5" transform="matrix(-0.0838597 0.996478 -0.99905 -0.0435863 38.3388 219.859)" stroke="#5CC4FF" stroke-width="3" stroke-linecap="round" stroke-linejoin="round"/>
<path d="M31.7535 229.148C34.7825 231.064 36.5506 231.122 39.8077 229.595" stroke="#5CC4FF" stroke-width="3" stroke-linecap="round" stroke-linejoin="round"/>
<rect x="69.7278" y="118.256" width="11.7018" height="11.2456" transform="rotate(-1.5 69.7278 118.256)" stroke="white" stroke-width="2" stroke-linecap="round" stroke-linejoin="round"/>
<rect x="70.4589" y="139.538" width="11.7018" height="11.2456" transform="rotate(-1.5 70.4589 139.538)" stroke="white" stroke-width="2" stroke-linecap="round" stroke-linejoin="round"/>
<rect x="71.1969" y="159.961" width="11.7018" height="11.2456" transform="rotate(-1.5 71.1969 159.961)" stroke="white" stroke-width="2" stroke-linecap="round" stroke-linejoin="round"/>
<rect x="72.3314" y="181.126" width="11.7018" height="11.2456" transform="rotate(-1.5 72.3314 181.126)" stroke="white" stroke-width="2" stroke-linecap="round" stroke-linejoin="round"/>
<path d="M72.8138 121.743C73.9011 123.207 75.1178 124.344 76.3949 125.621C77.6262 126.853 77.4923 126.393 78.2375 124.685C80.2906 119.98 83.6374 116.154 88.0001 113.451C88.4678 113.162 90.5179 111.682 91.0017 112.649" stroke="#FF3838" stroke-width="2" stroke-linecap="round" stroke-linejoin="round"/>
<path d="M73.2873 143.287C74.3746 144.75 75.5912 145.888 76.8684 147.165C78.0997 148.396 77.9658 147.937 78.711 146.229C80.764 141.524 84.1109 137.698 88.4736 134.995C88.9413 134.706 90.9914 133.225 91.4752 134.193" stroke="#FF3838" stroke-width="2" stroke-linecap="round" stroke-linejoin="round"/>
<path d="M73.9976 163.41C75.0848 164.874 76.3015 166.011 77.5787 167.289C78.8099 168.52 78.676 168.06 79.4212 166.352C81.4743 161.647 84.8212 157.821 89.1838 155.119C89.6515 154.829 91.7016 153.349 92.1854 154.316" stroke="#FF3838" stroke-width="2" stroke-linecap="round" stroke-linejoin="round"/>
<path d="M100.821 159.237C99.1917 157.266 95.1879 156.945 94.3338 160.331C94.1812 161.612 94.1812 161.551 94.4753 163.432C94.8193 164.21 95.306 164.5 96.0395 164.703C97.1462 165.011 98.3343 164.381 99.6347 165.692C100.692 166.586 100.992 167.039 101.112 169.58C100.821 171.326 99.154 171.708 97.7991 171.633C96.2757 171.549 95.248 171.497 94.4753 170.08" stroke="white" stroke-width="2" stroke-linecap="round" stroke-linejoin="round"/>
<path d="M104.642 158.349C104.642 162.39 104.528 168.032 104.528 172.072" stroke="white" stroke-width="2" stroke-linecap="round" stroke-linejoin="round"/>
<path d="M107.77 166.952C108.431 167.76 110.487 167.329 111.583 166.843C112.841 166.003 112.658 165.406 112.658 164.519C112.658 162.533 108.835 162.6 108.161 164.117C107.569 165.306 107.035 168.035 108.161 169.102C108.842 169.747 109.466 170.246 110.42 170.246C111.273 170.246 111.545 170.313 112.509 169.915" stroke="white" stroke-width="2" stroke-linecap="round" stroke-linejoin="round"/>
<path d="M115.591 166.365C117.294 166.696 118.916 166.981 120.004 165.652C120.368 165.206 120.885 162.975 119.501 162.357C118.339 161.767 116.413 162.061 115.792 163.693C115.411 165.026 114.824 166.396 115.873 167.886C116.608 168.949 118.208 169.961 120.265 169.341" stroke="white" stroke-width="2" stroke-linecap="round" stroke-linejoin="round"/>
<path d="M123.411 161.673C123.411 166.43 123.411 171.188 123.411 175.945" stroke="white" stroke-width="2" stroke-linecap="round" stroke-linejoin="round"/>
<path d="M123.411 165.039C124.31 161.596 129.325 159.683 129.325 165.039C129.325 167.068 127.874 168.697 126.671 169.122C125.874 169.403 124.17 169.859 123.715 168.412" stroke="white" stroke-width="2" stroke-linecap="round" stroke-linejoin="round"/>
<path d="M95.0245 179.637C95.0245 183.677 95.0245 187.718 95.0245 191.759" stroke="white" stroke-width="2" stroke-linecap="round" stroke-linejoin="round"/>
<path d="M95.2574 182.397C96.2527 181.134 97.2709 179.957 98.9722 180.051C100.642 180.144 100.927 182.803 100.927 183.961C100.927 186.873 96.7295 186.442 95.0619 185.33" stroke="white" stroke-width="2" stroke-linecap="round" stroke-linejoin="round"/>
<path d="M95.0619 185.33C96.5819 186.553 97.9409 187.908 99.4501 189.142C100.14 189.707 100.642 190.279 101.123 191" stroke="white" stroke-width="2" stroke-linecap="round" stroke-linejoin="round"/>
<path d="M103.86 187.676C104.58 187.676 108.357 188.102 108.357 186.59C108.357 185.018 106.511 183.691 105.033 184.266C103.354 184.919 103.687 188.195 103.903 189.631C104.077 190.781 104.307 191.195 105.457 191.195C106.295 191.195 108.815 191.188 109.139 190.218" stroke="white" stroke-width="2" stroke-linecap="round" stroke-linejoin="round"/>
<path d="M112.269 184.033C112.269 188.09 112.269 192.147 112.269 196.204" stroke="white" stroke-width="2" stroke-linecap="round" stroke-linejoin="round"/>
<path d="M112.273 185.737C112.792 185.286 113.589 184.502 114.245 184.502C114.857 184.502 115.382 184.57 115.96 184.807C116.844 185.169 117.494 186.072 117.494 187.177C117.494 187.624 117.635 188.476 117.378 188.816C116.98 189.342 116.553 189.681 115.986 189.921C114.896 190.381 112.9 190.785 112.273 189.303" stroke="white" stroke-width="2" stroke-linecap="round" stroke-linejoin="round"/>
<path d="M121.59 188.378C122.765 188.163 125.373 187.499 125.431 186.03C125.481 184.765 124.371 183.29 122.855 184.125C120.938 185.181 121.042 187.159 121.042 189.023C121.042 190.163 121.219 190.804 122.551 190.827C123.206 190.839 123.842 191.038 124.502 190.927C124.899 190.861 125.303 190.698 125.706 190.698" stroke="white" stroke-width="2" stroke-linecap="round" stroke-linejoin="round"/>
<path d="M93.4583 138.697L93.7449 149.642C95.8099 149.588 98.6226 149.499 100.677 149.445M93.6009 138.727C96.9095 138.641 97.9847 138.669 101.243 138.584M93.6016 144.169C96.2076 144.101 98.3532 144.047 100.959 143.979M104.377 144.865C105.216 144.221 106.689 143.157 107.865 143.644C108.953 144.093 109.119 144.897 109.445 145.862C109.769 146.825 109.442 147.842 109.018 148.655C108.425 149.791 107.714 150.182 106.283 150.444C104.467 150.693 103.712 148.94 104.65 147.835C105.153 147.13 105.642 146.834 106.583 146.959C107.397 146.985 107.987 147.056 108.568 148.08M111.768 143.302C114.569 143.229 116.476 143.136 119.277 143.062M115.132 137.347L115.465 150.051M109.541 147.201C109.566 148.19 109.502 149.299 109.528 150.287" stroke="white" stroke-width="2" stroke-linecap="round" stroke-linejoin="round"/>
<path d="M90.662 118.55C90.9789 119.5 91.197 120.276 91.5153 121.36C91.9727 123.039 92.5365 124.378 92.9565 125.949C93.2298 126.972 93.4905 128.077 93.8814 129.054C93.9988 129.347 94.07 128.45 94.1467 128.143C94.3912 127.165 94.3241 127.184 94.9211 125.397C95.3422 124.615 96.5386 122.886 96.5386 122.886C96.5386 122.886 96.7961 125.007 97.3446 126.236C97.8219 127.306 98.9865 128.746 98.9865 128.746C98.9865 128.746 99.2198 128.721 99.3092 128.459C99.4427 128.067 99.5243 127.24 99.5243 127.24C99.5243 127.24 100.17 125.262 100.557 124.307C101.281 122.521 101.935 120.718 102.593 118.908C102.799 118.342 103.181 117.13 103.181 117.13" stroke="white" stroke-width="2" stroke-linecap="round" stroke-linejoin="round"/>
<path d="M105.017 124.767C105.467 123.944 105.898 123.41 106.849 123.112C108.218 122.684 109.661 123.315 110.333 124.265C110.899 125.065 110.941 125.819 110.941 126.643C110.941 127.771 109.47 128.959 109.47 128.959C109.47 128.959 107.592 130.024 106.729 129.866C105.865 129.708 105.592 129.456 105.592 129.456C105.592 129.456 105.145 129.229 104.863 128.794C104.581 128.359 104.603 127.618 104.622 126.857C104.643 126.029 104.611 125.507 105.017 124.767Z" stroke="white" stroke-width="2" stroke-linecap="round" stroke-linejoin="round"/>
<path d="M114.348 129.792C114.348 127.383 114.351 127.385 114.351 124.976C114.351 124.704 114.245 123.124 114.17 122.627" stroke="white" stroke-width="2" stroke-linecap="round" stroke-linejoin="round"/>
<path d="M114.45 126.446C115.063 124.104 117.181 122.057 119.026 122.932C119.539 123.176 119.909 123.315 120.287 123.836C120.449 124.059 120.613 124.122 120.714 124.93" stroke="white" stroke-width="2" stroke-linecap="round" stroke-linejoin="round"/>
<path d="M123.939 118.65C123.939 121.816 123.939 124.981 123.939 128.146C123.939 128.445 123.959 128.819 124.068 130.199" stroke="white" stroke-width="2" stroke-linecap="round" stroke-linejoin="round"/>
<path d="M125.065 124.124C126.542 124.124 127.932 123.229 128.828 122.095C129.255 121.553 129.535 120.94 129.746 120.204" stroke="white" stroke-width="2" stroke-linecap="round" stroke-linejoin="round"/>
<path d="M124.81 124.321C126.598 125.625 127.841 127.308 129.306 128.908C129.649 129.282 130.003 129.798 130.288 130.25" stroke="white" stroke-width="2" stroke-linecap="round" stroke-linejoin="round"/>
<g filter="url(#filter4_d)">
<rect x="203.433" y="111.116" width="27.4477" height="27.0817" transform="rotate(2 203.433 111.116)" fill="#FFE767"/>
</g>
<g filter="url(#filter5_d)">
<rect x="182.189" y="103.352" width="27.4477" height="27.0817" transform="rotate(-3.5 182.189 103.352)" fill="#FFE767"/>
</g>
<path d="M183.901 164.822C184.413 166.06 182.003 168.562 178.755 169.908C175.506 171.253 172.649 170.932 172.137 169.695C171.624 168.457 173.842 166.362 177.09 165.017C180.339 163.671 183.388 163.584 183.901 164.822Z" fill="white"/>
<path d="M153.27 190.221C154.599 191.419 156.62 191.423 158.671 190.681C160.744 189.931 162.985 188.38 164.927 186.224C166.869 184.067 168.177 181.677 168.706 179.536C169.229 177.419 169.014 175.41 167.684 174.212C166.354 173.015 164.333 173.011 162.282 173.753C160.209 174.502 157.968 176.053 156.026 178.21C154.085 180.366 152.777 182.757 152.248 184.897C151.724 187.014 151.94 189.024 153.27 190.221Z" fill="black" stroke="#FFD600"/>
<path d="M222.278 173.933C220.645 175.098 219.935 177.122 220.018 179.353C220.101 181.589 220.977 184.099 222.6 186.374C224.222 188.649 226.311 190.294 228.398 191.101C230.48 191.906 232.624 191.894 234.258 190.728C235.892 189.563 236.601 187.54 236.518 185.309C236.435 183.073 235.559 180.562 233.936 178.288C232.314 176.013 230.225 174.368 228.138 173.561C226.056 172.756 223.912 172.768 222.278 173.933Z" fill="black" stroke="#FFD600"/>
<path d="M150.376 98.0747C143.359 115.617 143.439 159.166 159.669 180.238" stroke="black" stroke-width="11"/>
<path d="M236.703 100.876C243.72 118.419 243.857 164.476 227.41 183.039" stroke="black" stroke-width="11"/>
<circle cx="151.558" cy="90.1493" r="13.2458" transform="rotate(21 151.558 90.1493)" fill="black"/>
<circle cx="233.295" cy="90.5935" r="13.2458" transform="rotate(21 233.295 90.5935)" fill="black"/>
<path d="M154.383 79.5867C154.896 80.8246 151.269 80.1987 148.02 81.5443C144.772 82.8899 143.131 85.6975 142.619 84.4596C142.106 83.2217 144.324 81.1273 147.572 79.7817C150.821 78.4361 153.87 78.3488 154.383 79.5867Z" fill="white"/>
<path d="M236.14 79.6419C236.653 80.8798 233.392 80.1987 230.144 81.5443C226.895 82.8899 224.888 85.7526 224.376 84.5147C223.863 83.2768 226.081 81.1825 229.329 79.8369C232.578 78.4913 235.627 78.404 236.14 79.6419Z" fill="white"/>
</g>
<defs>
<filter id="filter0_d" x="50.6854" y="92.2419" width="284.407" height="162.627" filterUnits="userSpaceOnUse" color-interpolation-filters="sRGB">
<feFlood flood-opacity="0" result="BackgroundImageFix"/>
<feColorMatrix in="SourceAlpha" type="matrix" values="0 0 0 0 0 0 0 0 0 0 0 0 0 0 0 0 0 0 127 0"/>
<feOffset dx="7" dy="6"/>
<feGaussianBlur stdDeviation="0.5"/>
<feColorMatrix type="matrix" values="0 0 0 0 0 0 0 0 0 0 0 0 0 0 0 0 0 0 0.25 0"/>
<feBlend mode="normal" in2="BackgroundImageFix" result="effect1_dropShadow"/>
<feBlend mode="normal" in="SourceGraphic" in2="effect1_dropShadow" result="shape"/>
</filter>
<filter id="filter1_d" x="237.935" y="136.836" width="71.2438" height="81.5906" filterUnits="userSpaceOnUse" color-interpolation-filters="sRGB">
<feFlood flood-opacity="0" result="BackgroundImageFix"/>
<feColorMatrix in="SourceAlpha" type="matrix" values="0 0 0 0 0 0 0 0 0 0 0 0 0 0 0 0 0 0 127 0"/>
<feOffset dx="2" dy="2"/>
<feGaussianBlur stdDeviation="0.5"/>
<feColorMatrix type="matrix" values="0 0 0 0 0 0 0 0 0 0 0 0 0 0 0 0 0 0 0.25 0"/>
<feBlend mode="normal" in2="BackgroundImageFix" result="effect1_dropShadow"/>
<feBlend mode="normal" in="SourceGraphic" in2="effect1_dropShadow" result="shape"/>
</filter>
<filter id="filter2_d" x="240.852" y="140.402" width="61.4864" height="71.4149" filterUnits="userSpaceOnUse" color-interpolation-filters="sRGB">
<feFlood flood-opacity="0" result="BackgroundImageFix"/>
<feColorMatrix in="SourceAlpha" type="matrix" values="0 0 0 0 0 0 0 0 0 0 0 0 0 0 0 0 0 0 127 0"/>
<feOffset dy="-1"/>
<feGaussianBlur stdDeviation="0.5"/>
<feColorMatrix type="matrix" values="0 0 0 0 0 0 0 0 0 0 0 0 0 0 0 0 0 0 0.25 0"/>
<feBlend mode="normal" in2="BackgroundImageFix" result="effect1_dropShadow"/>
<feBlend mode="normal" in="SourceGraphic" in2="effect1_dropShadow" result="shape"/>
</filter>
<filter id="filter3_d" x="241.992" y="139.409" width="61.1222" height="71.2997" filterUnits="userSpaceOnUse" color-interpolation-filters="sRGB">
<feFlood flood-opacity="0" result="BackgroundImageFix"/>
<feColorMatrix in="SourceAlpha" type="matrix" values="0 0 0 0 0 0 0 0 0 0 0 0 0 0 0 0 0 0 127 0"/>
<feOffset dy="-1"/>
<feGaussianBlur stdDeviation="0.5"/>
<feColorMatrix type="matrix" values="0 0 0 0 0 0 0 0 0 0 0 0 0 0 0 0 0 0 0.25 0"/>
<feBlend mode="normal" in2="BackgroundImageFix" result="effect1_dropShadow"/>
<feBlend mode="normal" in="SourceGraphic" in2="effect1_dropShadow" result="shape"/>
</filter>
<filter id="filter4_d" x="202.488" y="111.116" width="31.3761" height="31.0231" filterUnits="userSpaceOnUse" color-interpolation-filters="sRGB">
<feFlood flood-opacity="0" result="BackgroundImageFix"/>
<feColorMatrix in="SourceAlpha" type="matrix" values="0 0 0 0 0 0 0 0 0 0 0 0 0 0 0 0 0 0 127 0"/>
<feOffset dx="2" dy="2"/>
<feGaussianBlur stdDeviation="0.5"/>
<feColorMatrix type="matrix" values="0 0 0 0 0 0 0 0 0 0 0 0 0 0 0 0 0 0 0.25 0"/>
<feBlend mode="normal" in2="BackgroundImageFix" result="effect1_dropShadow"/>
<feBlend mode="normal" in="SourceGraphic" in2="effect1_dropShadow" result="shape"/>
</filter>
<filter id="filter5_d" x="182.189" y="101.676" width="32.0498" height="31.7069" filterUnits="userSpaceOnUse" color-interpolation-filters="sRGB">
<feFlood flood-opacity="0" result="BackgroundImageFix"/>
<feColorMatrix in="SourceAlpha" type="matrix" values="0 0 0 0 0 0 0 0 0 0 0 0 0 0 0 0 0 0 127 0"/>
<feOffset dx="2" dy="2"/>
<feGaussianBlur stdDeviation="0.5"/>
<feColorMatrix type="matrix" values="0 0 0 0 0 0 0 0 0 0 0 0 0 0 0 0 0 0 0.25 0"/>
<feBlend mode="normal" in2="BackgroundImageFix" result="effect1_dropShadow"/>
<feBlend mode="normal" in="SourceGraphic" in2="effect1_dropShadow" result="shape"/>
</filter>
<linearGradient id="paint0_linear" x1="-35.4337" y1="41.7811" x2="468.811" y2="202.698" gradientUnits="userSpaceOnUse">
<stop offset="0.332642" stop-color="#C2C2C2"/>
<stop offset="1" stop-color="#DBDBDB"/>
</linearGradient>
<linearGradient id="paint1_linear" x1="42.4916" y1="99.378" x2="467.471" y2="173.944" gradientUnits="userSpaceOnUse">
<stop stop-color="#00D1FF"/>
<stop offset="1" stop-color="#0031FD"/>
</linearGradient>
<linearGradient id="paint2_linear" x1="11.8919" y1="238.795" x2="53.9269" y2="238.834" gradientUnits="userSpaceOnUse">
<stop stop-color="#B4B4B4"/>
<stop offset="1" stop-color="white"/>
</linearGradient>
<linearGradient id="paint3_linear" x1="8.84991" y1="206.525" x2="52.5529" y2="212.056" gradientUnits="userSpaceOnUse">
<stop stop-color="#23FD00"/>
<stop offset="1" stop-color="#3CB9FF"/>
</linearGradient>
<linearGradient id="paint4_linear" x1="-54.6605" y1="204.314" x2="61.5415" y2="250.784" gradientUnits="userSpaceOnUse">
<stop stop-color="#23FD00"/>
<stop offset="1" stop-color="#00D1FF"/>
</linearGradient>
<clipPath id="clip0">
<rect width="381" height="299" fill="white"/>
</clipPath>
</defs>
</svg>
