<svg width="381" height="299" viewBox="0 0 381 299" fill="none" xmlns="http://www.w3.org/2000/svg">
<ellipse rx="78.711" ry="17.4434" transform="matrix(0.997564 0.0697565 0.0697565 -0.997564 96.7361 263.186)" fill="#C2C2C2"/>
<path d="M69.3745 189.47L61.8683 189.808L86.8204 255.377L90.3791 255.38L69.3745 189.47Z" fill="#7B5028"/>
<rect x="49.894" y="236" width="7.10231" height="39.0627" transform="rotate(-96 49.894 236)" fill="#8C5D31"/>
<ellipse cx="267.522" cy="253.815" rx="87.2527" ry="13.7111" transform="rotate(-2.5 267.522 253.815)" fill="#C2C2C2"/>
<path d="M76.0862 187.021L65.4135 188.518L89.7488 255.378L100.396 255.378L76.0862 187.021Z" fill="#8C5D31"/>
<circle cx="211.431" cy="102.992" r="37.394" fill="black"/>
<ellipse cx="256.927" cy="130.414" rx="30.5385" ry="27.4223" fill="black"/>
<ellipse cx="322.99" cy="140.386" rx="43.0031" ry="28.6688" fill="black"/>
<line x1="229.174" y1="144.52" x2="204.347" y2="160.037" stroke="black" stroke-width="6" stroke-linecap="round" stroke-linejoin="round"/>
<line x1="201.863" y1="160.458" x2="176.658" y2="157.433" stroke="black" stroke-width="6" stroke-linecap="round" stroke-linejoin="round"/>
<line x1="221.275" y1="174.884" x2="196.07" y2="177.908" stroke="black" stroke-width="6" stroke-linecap="round" stroke-linejoin="round"/>
<line x1="241.04" y1="145.77" x2="223.047" y2="174.347" stroke="black" stroke-width="6" stroke-linecap="round" stroke-linejoin="round"/>
<line x1="269.433" y1="149.452" x2="271.603" y2="189.58" stroke="black" stroke-width="6" stroke-linecap="round" stroke-linejoin="round"/>
<line x1="272.516" y1="194.728" x2="289.456" y2="250.068" stroke="black" stroke-width="6" stroke-linecap="round" stroke-linejoin="round"/>
<line x1="259.055" y1="154.325" x2="239.081" y2="198.712" stroke="black" stroke-width="6" stroke-linecap="round" stroke-linejoin="round"/>
<line x1="238.114" y1="203.217" x2="238.114" y2="250.815" stroke="black" stroke-width="6" stroke-linecap="round" stroke-linejoin="round"/>
<line x1="188.009" y1="87.0486" x2="188.009" y2="100.239" stroke="white" stroke-width="8" stroke-linecap="round" stroke-linejoin="round"/>
<path d="M186.54 93.6435V98.6294" stroke="black" stroke-width="3" stroke-linecap="round" stroke-linejoin="round"/>
<path d="M202.706 90.5274V101.746" stroke="white" stroke-width="8" stroke-linecap="round" stroke-linejoin="round"/>
<path d="M201.46 95.5132V100.499" stroke="black" stroke-width="3" stroke-linecap="round" stroke-linejoin="round"/>
<circle cx="186.903" cy="99.9239" r="1.82165" fill="white"/>
<circle cx="186.903" cy="99.9239" r="1.82165" fill="white"/>
<circle cx="186.903" cy="99.9239" r="1.82165" fill="white"/>
<circle cx="186.903" cy="99.9239" r="1.82165" fill="white"/>
<circle cx="201.791" cy="101.746" r="1.82165" fill="white"/>
<circle cx="201.791" cy="101.746" r="1.82165" fill="white"/>
<circle cx="201.791" cy="101.746" r="1.82165" fill="white"/>
<circle cx="201.791" cy="101.746" r="1.82165" fill="white"/>
<ellipse cx="210.808" cy="82.4254" rx="45.4961" ry="6.85557" fill="#FFD600"/>
<ellipse cx="209.562" cy="69.3374" rx="33.0314" ry="19.9435" fill="#FFD600"/>
<rect x="176.53" y="68.091" width="66.0628" height="13.7111" fill="#FFD600"/>
<path d="M229.505 57.5074C229.613 58.88 213.167 56.8053 204.245 57.5074C195.323 58.2096 188.199 60.1514 188.091 58.7788C187.983 57.4062 194.981 53.8604 203.903 53.1582C220.157 51.879 229.397 56.1349 229.505 57.5074Z" fill="#E2BE00"/>
<circle cx="135.397" cy="44.4081" r="8.72527" fill="black"/>
<path d="M178.215 69.419C179.014 69.9381 180.048 69.648 180.931 69.0979C181.851 68.5245 182.799 67.5633 183.579 66.3613C184.36 65.1593 184.852 63.9032 185.002 62.8289C185.145 61.7985 184.99 60.7365 184.191 60.2173C183.391 59.6981 182.358 59.9883 181.475 60.5383C180.554 61.1118 179.607 62.0729 178.826 63.2749C178.046 64.4769 177.553 65.7331 177.404 66.8073C177.26 67.8377 177.415 68.8998 178.215 69.419Z" fill="black" stroke="#FFD600"/>
<path d="M138.513 45.0313C157.76 47.3976 171.364 50.7043 181.516 64.9748" stroke="black" stroke-width="6"/>
<circle cx="167.211" cy="23.2726" r="8.72527" transform="rotate(21 167.211 23.2726)" fill="black"/>
<path d="M196.144 68.2678C197.041 68.9943 198.309 68.905 199.504 68.4005C200.722 67.8867 202.001 66.8949 203.079 65.5635C204.157 64.2322 204.862 62.7748 205.111 61.477C205.356 60.2029 205.18 58.9438 204.282 58.2173C203.385 57.4908 202.117 57.5801 200.922 58.0845C199.704 58.5984 198.425 59.5902 197.347 60.9215C196.269 62.2529 195.565 63.7103 195.315 65.0081C195.07 66.2821 195.247 67.5413 196.144 68.2678Z" fill="black" stroke="#FFD600"/>
<path d="M170.561 24.1097C187.682 33.2164 195.959 47.0581 200.323 64.0189" stroke="black" stroke-width="6"/>
<path d="M139.018 142.854C135.854 140.679 134.978 136.456 137.064 133.422C139.149 130.388 143.404 129.692 146.569 131.867L165.039 145.909L188.588 160.745C191.752 162.92 192.627 167.143 190.542 170.177C188.457 173.211 184.201 173.907 181.036 171.733C178.364 169.896 176.137 165.669 173.7 163.994C161.888 155.876 151.975 151.759 139.018 142.854Z" fill="#8C5D31"/>
<rect x="130.346" y="155.767" width="13.3318" height="11.1098" transform="rotate(-55.5 130.346 155.767)" fill="#C4C4C4"/>
<path d="M139.958 151.588C143.498 154.021 144.491 158.724 142.176 162.092C139.861 165.46 137.211 163.169 133.671 160.736C130.131 158.304 127.043 156.65 129.358 153.282C131.672 149.914 136.418 149.156 139.958 151.588Z" fill="#C4C4C4"/>
<path d="M139.958 151.588C143.498 154.021 148.619 152.717 151.397 148.675C154.175 144.633 151.042 143.044 147.503 140.611C143.963 138.178 141.356 135.824 138.579 139.865C135.801 143.907 136.418 149.156 139.958 151.588Z" fill="#C4C4C4"/>
<path d="M153.802 131.445C157.342 133.878 157.959 139.127 155.181 143.169C152.404 147.21 149.797 144.856 146.257 142.423C142.718 139.99 139.585 138.401 142.363 134.359C145.141 130.317 150.262 129.013 153.802 131.445Z" fill="#C4C4C4"/>
<rect x="138.583" y="139.859" width="6.66589" height="15.5537" transform="rotate(-55.5 138.583 139.859)" fill="#C4C4C4"/>
<path d="M142.261 134.507C148.801 124.992 155.302 122.96 165.358 120.515C151.7 130.519 146.513 139.838 138.929 158.97L142.261 134.507Z" fill="#C4C4C4"/>
<path d="M61.2584 184.013L74.1427 188.702L48.5637 258.98L34.4329 258.98L61.2584 184.013Z" fill="#8C5D31"/>
<path d="M61.2584 184.013L66.2583 185.832L39.4188 258.889L34.1842 258.889L61.2584 184.013Z" fill="#7B5028"/>
<path d="M131.241 203.414L126.672 203.956L149.579 272.689L153.319 272.692L131.241 203.414Z" fill="#7B5028"/>
<rect x="110.907" y="247.762" width="7.47881" height="41.1334" transform="rotate(-90.5 110.907 247.762)" fill="#8C5D31"/>
<path d="M138.296 200.84L127.078 202.413L152.657 272.691L163.849 272.691L138.296 200.84Z" fill="#8C5D31"/>
<path d="M122.742 197.724L135.626 202.413L110.047 272.691L95.9164 272.691L122.742 197.724Z" fill="#8C5D31"/>
<path d="M122.742 197.724L127.742 199.543L100.902 272.6L95.6676 272.6L122.742 197.724Z" fill="#7B5028"/>
<path d="M44.4047 193.402L83.0452 188.417L162.196 209.607L127.295 216.462L44.4047 193.402Z" fill="#8C5D31"/>
<path d="M44.4047 184.677L83.0452 179.691L162.196 200.881C148.989 204.188 141.371 205.724 127.295 207.737L44.4047 184.677Z" fill="#8C5D31"/>
<path d="M44.4046 193.361L44.4046 184.636L129.788 207.696L129.788 217.044L44.4046 193.361Z" fill="#7B5028"/>
<path d="M44.4046 193.361L44.4046 184.636L129.788 207.696L129.788 217.044L44.4046 193.361Z" fill="#7B5028"/>
<path d="M162.196 209.565L162.196 200.84L129.788 207.695L129.788 217.044L162.196 209.565Z" fill="#7B5028"/>
<path d="M162.196 209.565L162.196 200.84L129.788 207.695L129.788 217.044L162.196 209.565Z" fill="#7B5028"/>
<path d="M129.493 202.999L130.631 194.461H128.356L129.493 202.999Z" fill="#E5E5E5"/>
<path d="M129.493 202.999L130.631 194.461H128.356L129.493 202.999Z" fill="#E5E5E5"/>
<ellipse cx="139.136" cy="200.217" rx="2.49294" ry="1.24647" fill="#E5E5E5"/>
<ellipse cx="75.6696" cy="183.666" rx="2.49294" ry="1.24647" fill="#E5E5E5"/>
<ellipse cx="67.9064" cy="184.912" rx="2.49294" ry="1.24647" fill="#E5E5E5"/>
<path d="M130.56 194.921C130.56 195.186 129.941 195.41 129.478 195.405C129.025 195.4 128.425 195.186 128.425 194.921C128.425 194.655 129.239 194.242 129.478 194.242C129.716 194.242 130.56 194.655 130.56 194.921Z" fill="#7B7979"/>
<ellipse cx="129.493" cy="194.242" rx="1.75139" ry="0.875696" fill="#E5E5E5"/>
<path d="M116.08 198.88L124.578 197.472L123.912 195.296L116.08 198.88Z" fill="#E5E5E5"/>
<path d="M124.966 197.995C124.504 198.136 123.9 197.501 123.617 196.576C123.334 195.651 123.48 194.786 123.942 194.645C124.405 194.504 125.009 195.139 125.292 196.064C125.575 196.989 125.429 197.853 124.966 197.995Z" fill="#E5E5E5"/>
<path d="M116.088 198.878L124.592 197.471L124.592 196.237L116.088 198.878Z" fill="#7B7979"/>
<path d="M129.5 202.958L130.562 194.954L129.352 195.267L129.5 202.958Z" fill="#7B7979"/>
<path d="M331.738 120.732C332.47 124.328 324.089 122.289 314.654 124.208C305.219 126.128 298.301 131.279 297.57 127.684C296.838 124.089 303.894 119.618 313.329 117.698C322.765 115.778 331.007 117.137 331.738 120.732Z" fill="white"/>
<path d="M158.693 123.327C158.871 123.685 156.61 124.366 154.04 125.647C151.471 126.928 149.567 128.325 149.388 127.966C149.21 127.608 151.148 126.279 153.717 124.998C156.286 123.717 158.514 122.969 158.693 123.327Z" fill="white"/>
<path d="M138.322 153.627C138.198 154.008 137.088 153.226 135.567 152.732C134.045 152.237 132.687 152.218 132.811 151.836C132.935 151.455 134.269 151.547 135.791 152.041C137.313 152.536 138.446 153.246 138.322 153.627Z" fill="white"/>
<path d="M144.708 149.752C144.532 150.106 143.547 149.174 142.115 148.46C140.683 147.746 139.345 147.521 139.522 147.167C139.699 146.813 141.003 147.105 142.435 147.819C143.867 148.533 144.885 149.398 144.708 149.752Z" fill="#AFAFAF"/>
<path d="M266.064 111.669C265.897 113.027 263.173 111.314 259.608 110.876C256.042 110.438 252.985 111.442 253.152 110.083C253.318 108.724 256.344 107.978 259.91 108.416C263.475 108.854 266.23 110.31 266.064 111.669Z" fill="white"/>
<path d="M170.414 17.1081C170.349 17.6419 169.279 16.9686 167.878 16.7966C166.477 16.6246 165.276 17.019 165.341 16.4852C165.407 15.9513 166.596 15.658 167.996 15.83C169.397 16.002 170.48 16.5742 170.414 17.1081Z" fill="white"/>
<path d="M137.93 38.1441C137.902 38.6812 136.787 38.0842 135.378 38.0103C133.968 37.9364 132.797 38.4137 132.826 37.8766C132.854 37.3395 134.019 36.9639 135.429 37.0378C136.838 37.1117 137.958 37.607 137.93 38.1441Z" fill="white"/>
<path d="M253.859 81.806C254.476 83.1251 250.241 84.286 240.354 86.0794C234.967 86.7886 230.412 87.0874 230.326 86.4296C230.239 85.7718 234.967 85.5478 240.354 84.8385C245.741 84.1293 253.859 81.806 253.859 81.806Z" fill="white"/>
<path d="M191.435 113.174C193.808 115.564 195.155 115.435 197.569 114.09" stroke="white" stroke-width="2" stroke-linecap="round" stroke-linejoin="round"/>
</svg>
